<?xml version="1.0" standalone="no"?>
<!DOCTYPE svg PUBLIC "-//W3C//DTD SVG 20010904//EN"
 "http://www.w3.org/TR/2001/REC-SVG-20010904/DTD/svg10.dtd">
<svg version="1.0" xmlns="http://www.w3.org/2000/svg"
 width="1200.000000pt" height="1200.000000pt" viewBox="0 0 1200.000000 1200.000000"
 preserveAspectRatio="xMidYMid meet">
<metadata>
Created by potrace 1.11, written by Peter Selinger 2001-2013
</metadata>
<g transform="translate(0.000000,1200.000000) scale(0.100000,-0.100000)"
fill="#000000" stroke="none">
<path d="M5730 11990 c-1200 -54 -2344 -462 -3310 -1180 -528 -392 -1021 -908
-1390 -1455 -586 -866 -925 -1845 -1011 -2915 -15 -187 -15 -694 0 -880 50
-619 178 -1186 394 -1740 313 -805 808 -1543 1442 -2151 932 -893 2124 -1461
3400 -1618 269 -34 437 -43 745 -44 306 0 473 10 745 44 2380 293 4367 1998
5024 4309 205 724 273 1509 195 2260 -186 1794 -1165 3401 -2679 4395 -1051
691 -2295 1032 -3555 975z m50 -603 c0 -46 3 -172 7 -280 l6 -196 146 -3 146
-3 3 -51 3 -51 -38 -6 c-21 -3 -121 -7 -223 -8 l-185 -2 -6 189 c-4 104 -7
258 -8 342 l-1 152 75 0 75 0 0 -83z m685 68 c243 -22 225 -16 225 -75 0 -27
-3 -51 -8 -53 -4 -3 -72 1 -152 7 -80 7 -148 10 -151 7 -6 -6 -22 -151 -17
-151 84 -7 281 -30 284 -33 3 -3 2 -28 -2 -57 l-7 -52 -46 6 c-25 3 -89 8
-142 12 l-96 7 -6 -48 c-4 -26 -7 -67 -7 -90 l0 -42 128 -12 c70 -6 139 -11
155 -11 26 0 27 -2 27 -54 0 -30 -4 -57 -9 -60 -8 -5 -453 33 -460 40 -4 3 47
615 55 652 5 27 -1 27 229 7z m-1015 -12 c0 -4 16 -155 36 -336 20 -181 34
-331 31 -333 -3 -3 -36 -8 -74 -11 l-69 -6 -33 314 c-18 173 -35 326 -38 341
-5 25 -3 27 38 31 82 7 109 7 109 0z m1498 -52 c23 -5 44 -10 46 -12 6 -6
-111 -659 -118 -666 -7 -7 -125 13 -134 22 -3 3 20 150 51 328 32 177 57 325
57 330 0 9 43 8 98 -2z m-1943 -11 c45 0 112 -48 135 -96 11 -22 20 -45 20
-51 0 -10 -127 -40 -134 -32 -1 2 -12 18 -25 36 -30 44 -74 51 -135 24 -51
-22 -71 -56 -61 -103 9 -41 45 -55 165 -63 130 -8 170 -18 211 -52 61 -51 76
-141 38 -220 -41 -84 -143 -142 -270 -150 -101 -7 -142 1 -185 40 -37 32 -79
111 -70 133 4 10 135 40 140 32 2 -2 8 -18 16 -36 17 -44 46 -62 98 -62 83 0
142 45 142 106 0 46 -38 74 -101 74 -79 0 -201 20 -240 41 -89 45 -121 155
-73 250 15 30 62 72 106 95 39 20 147 44 173 39 11 -3 34 -5 50 -5z m2365 -85
c143 -39 220 -74 244 -110 8 -12 19 -39 26 -61 25 -83 -31 -180 -119 -204
l-42 -11 30 -29 c25 -23 31 -36 31 -71 0 -84 -24 -259 -35 -259 -17 0 -119 31
-127 38 -4 4 0 54 7 112 19 136 18 137 -5 157 -17 15 -126 52 -156 53 -6 0
-26 -55 -44 -122 -18 -68 -36 -126 -39 -130 -8 -9 -141 24 -141 35 0 11 171
639 176 649 3 4 17 3 32 -2 15 -5 88 -25 162 -45z m-3084 -132 c15 -21 69 -90
119 -153 100 -127 250 -318 277 -354 l18 -23 -59 -22 c-32 -11 -65 -21 -73
-21 -8 0 -32 25 -54 55 -21 30 -46 55 -54 55 -8 0 -68 -19 -132 -41 l-118 -42
0 -78 0 -77 -52 -18 c-29 -9 -59 -19 -65 -22 -15 -5 -17 191 -6 524 l6 201 76
26 c42 14 79 26 82 26 4 1 19 -16 35 -36z m3854 -134 c38 -18 70 -35 70 -39 0
-28 -51 -705 -54 -707 -1 -2 -32 9 -68 24 l-66 28 6 77 5 78 -64 28 c-35 16
-90 39 -123 53 l-59 24 -52 -58 -52 -57 -62 27 c-34 14 -60 30 -59 34 7 20
482 519 494 519 8 0 45 -14 84 -31z m-4417 -103 c70 -29 117 -122 98 -191 -5
-19 -19 -47 -30 -63 l-21 -29 39 1 c48 1 65 -13 139 -114 30 -41 66 -87 80
-102 l25 -27 -72 -35 -71 -34 -73 101 c-52 74 -79 103 -97 105 -25 4 -160 -55
-160 -70 0 -5 25 -58 55 -118 30 -60 55 -114 55 -120 0 -8 -110 -70 -125 -70
-5 0 -305 595 -305 605 0 3 77 44 171 90 183 91 222 101 292 71z m5240 -336
c193 -135 237 -193 237 -312 0 -80 -17 -129 -69 -206 -68 -101 -146 -155 -244
-168 -79 -11 -138 11 -286 109 -75 49 -138 91 -139 92 -2 2 16 32 40 67 24 35
111 161 192 281 81 119 149 217 151 217 2 0 55 -36 118 -80z m-5858 -20 c79
-38 116 -130 81 -201 -9 -17 -16 -33 -16 -33 0 -1 29 -1 64 -1 50 0 71 -5 92
-21 102 -75 106 -194 10 -289 -47 -46 -274 -205 -293 -205 -4 0 -21 21 -38 48
-16 26 -98 146 -180 267 -83 121 -154 225 -158 232 -5 7 37 42 118 98 189 130
236 146 320 105z m3404 -245 c881 -96 1678 -435 2366 -1006 128 -107 430 -407
528 -527 578 -701 904 -1456 1013 -2347 21 -178 30 -622 15 -810 -69 -867
-363 -1650 -876 -2330 -737 -976 -1835 -1595 -3065 -1727 -190 -20 -744 -17
-935 6 -867 102 -1621 423 -2315 985 -141 114 -472 447 -595 599 -851 1050
-1172 2373 -898 3702 262 1275 1134 2408 2311 3003 547 277 1101 426 1752 471
117 8 562 -4 699 -19z m2983 -112 c2 -5 76 -73 166 -153 l162 -144 -39 -40
-40 -40 -23 20 c-13 11 -64 57 -115 102 l-91 82 -51 -57 c-28 -32 -51 -61 -51
-64 0 -3 28 -30 62 -60 34 -30 82 -72 106 -94 l43 -40 -36 -43 -37 -42 -70 62
c-38 35 -88 78 -110 97 l-40 34 -58 -64 c-33 -35 -59 -66 -59 -69 0 -3 51 -50
114 -105 62 -55 114 -104 114 -110 0 -5 -15 -27 -33 -49 l-33 -39 -172 153
c-94 85 -171 158 -171 163 0 5 55 70 123 146 67 75 167 187 222 249 96 108
110 121 117 105z m-7251 -342 l-111 -106 55 -60 55 -59 104 103 104 104 36
-38 c20 -20 36 -40 36 -44 0 -3 -43 -49 -95 -101 -52 -52 -95 -99 -95 -105 0
-6 27 -37 60 -70 l60 -60 115 115 c66 66 118 110 122 105 5 -6 21 -25 38 -43
l29 -33 -159 -159 c-88 -88 -165 -160 -171 -160 -11 0 -465 462 -472 480 -2 4
70 78 160 164 l162 156 40 -41 39 -41 -112 -107z m-294 -417 c109 -37 225
-148 260 -249 21 -62 14 -157 -15 -214 -24 -45 -192 -271 -201 -271 -8 0 -490
375 -515 400 -19 19 -19 20 29 82 129 167 203 235 276 256 52 15 113 14 166
-4z m8300 -45 c143 -68 243 -252 203 -373 -13 -41 -56 -96 -73 -96 -7 0 -31
25 -55 56 l-44 56 22 23 c12 13 24 40 27 62 9 77 -83 172 -168 173 -78 0 -214
-79 -267 -156 -23 -33 -27 -50 -27 -105 0 -61 3 -71 39 -124 22 -31 50 -64 63
-72 22 -14 26 -13 73 23 27 21 50 44 50 50 0 7 -10 25 -23 41 -52 64 -51 58
-5 92 23 17 45 31 48 31 6 0 145 -176 163 -207 10 -16 -258 -217 -275 -207
-76 45 -189 177 -239 280 -28 57 -33 78 -33 138 0 58 5 81 26 122 36 68 116
145 191 183 114 58 198 60 304 10z m489 -676 c42 -76 93 -164 112 -197 38 -64
39 -60 -30 -96 l-36 -19 -66 118 c-94 167 -80 156 -153 113 -35 -20 -63 -42
-63 -48 0 -7 29 -63 65 -125 36 -63 65 -116 65 -119 0 -7 -77 -50 -89 -50 -6
0 -37 48 -70 108 -34 59 -65 113 -70 121 -13 21 -165 -64 -156 -88 3 -9 38
-72 77 -140 55 -97 67 -126 57 -133 -8 -5 -31 -18 -51 -28 l-37 -20 -112 197
c-75 133 -109 201 -103 210 8 12 560 331 576 332 3 1 41 -61 84 -136z m-9306
16 c91 -17 221 -41 290 -54 69 -13 143 -27 165 -31 57 -9 57 -10 33 -57 -45
-89 -41 -86 -111 -71 -34 7 -69 13 -77 13 -14 1 -140 -204 -140 -227 0 -5 20
-32 45 -60 25 -27 45 -54 45 -58 0 -17 -55 -114 -65 -114 -5 0 -23 17 -40 38
-16 20 -119 142 -227 270 -109 128 -198 236 -198 239 0 3 19 38 42 78 28 48
47 71 58 69 8 -2 89 -18 180 -35z m-117 -562 c178 -88 240 -220 184 -388 -38
-113 -101 -258 -111 -259 -9 0 -587 234 -613 248 -15 9 91 263 135 322 34 47
98 97 139 111 16 4 65 7 110 6 71 -3 92 -8 156 -40z m9613 12 c72 -27 127 -82
167 -167 28 -59 32 -77 32 -152 0 -100 -15 -138 -82 -206 -80 -83 -248 -142
-362 -127 -146 19 -255 151 -268 323 -12 157 94 278 287 331 88 24 157 23 226
-2z m-10153 -615 c15 -4 27 -13 27 -20 0 -8 -16 -75 -36 -150 -19 -75 -34
-137 -32 -139 7 -6 117 -35 135 -35 15 0 24 22 52 130 19 72 37 133 42 136 14
9 99 -18 99 -32 0 -7 -15 -71 -34 -143 l-34 -129 85 -21 c47 -12 87 -20 90
-18 2 3 17 56 34 118 42 163 48 179 67 179 20 0 92 -19 92 -24 0 -2 -25 -97
-55 -211 -30 -113 -55 -213 -55 -221 0 -8 -6 -14 -13 -14 -12 0 -585 149 -638
166 -13 4 -15 11 -9 37 21 86 103 393 107 400 3 5 15 6 27 3 11 -4 33 -9 49
-12z m10507 -141 c10 -37 16 -69 15 -71 -2 -2 -108 -30 -237 -63 -128 -33
-249 -64 -269 -69 l-37 -10 34 -133 c18 -72 34 -137 34 -143 0 -11 -99 -38
-108 -29 -6 6 -112 418 -109 421 1 1 146 39 322 84 176 45 322 84 324 86 8 7
13 -5 31 -73z m-10232 -552 c89 -16 165 -30 167 -33 2 -2 -1 -34 -7 -71 -8
-50 -15 -67 -27 -67 -17 0 -654 111 -658 114 -3 3 15 114 22 132 2 8 54 3 172
-18 92 -16 241 -42 331 -57z m10177 54 c150 -39 229 -155 227 -333 -2 -126
-60 -215 -177 -268 -150 -68 -346 -48 -440 44 -115 113 -128 338 -25 454 86
98 263 142 415 103z m-10515 -349 c0 -78 -5 -86 -52 -86 -11 0 -33 -13 -49
-29 -34 -34 -39 -92 -14 -141 39 -76 237 -122 361 -85 73 21 99 53 99 120 0
62 -25 97 -81 115 l-34 12 6 71 c4 40 8 74 10 76 8 9 74 -12 110 -35 76 -49
111 -137 101 -252 -17 -185 -143 -281 -351 -269 -123 6 -195 34 -261 101 -61
60 -85 121 -85 212 0 134 65 228 175 255 65 16 65 16 65 -65z m10555 -441
c147 -42 235 -167 235 -335 0 -159 -70 -262 -193 -285 l-37 -7 0 81 c0 74 2
81 20 81 32 0 66 20 83 50 23 38 22 126 -2 170 -68 129 -357 149 -441 30 -27
-38 -45 -133 -36 -192 l7 -46 67 -4 c37 -2 70 -2 75 0 4 2 7 32 7 68 0 71 3
73 79 58 l31 -6 0 -134 c0 -73 -3 -134 -7 -136 -5 -2 -82 -1 -173 2 l-164 5
-12 42 c-20 68 -27 211 -14 288 20 124 74 211 158 254 81 41 206 47 317 16z
m-10313 -205 c82 -25 147 -80 179 -152 20 -45 24 -69 24 -158 0 -94 -3 -110
-27 -155 -34 -65 -70 -98 -143 -132 -85 -39 -233 -45 -328 -14 -129 43 -197
138 -205 287 -9 169 67 279 225 328 71 22 198 20 275 -4z m10158 -565 c383
-47 342 -34 334 -108 -3 -34 -10 -66 -15 -71 -6 -6 -133 6 -341 32 -183 24
-333 44 -334 45 -1 1 3 35 9 75 10 71 10 73 36 68 14 -3 154 -22 311 -41z
m-10005 -184 c93 -42 155 -164 156 -309 1 -110 -40 -175 -130 -207 -24 -8 -45
-15 -47 -15 -4 0 -21 63 -29 111 -6 33 -5 37 20 43 47 12 75 49 75 101 0 51
-30 119 -59 135 -30 15 -66 12 -91 -8 -20 -16 -24 -32 -32 -128 -11 -142 -29
-201 -70 -240 -86 -82 -214 -65 -288 38 -55 75 -79 216 -51 299 17 54 95 119
140 119 8 0 31 -88 31 -119 0 -9 -13 -25 -30 -34 -19 -12 -34 -31 -41 -57 -10
-34 -9 -44 12 -87 26 -52 58 -71 102 -59 39 9 54 49 62 161 11 166 41 234 115
264 40 16 112 12 155 -8z m9952 -176 c158 -102 292 -192 298 -200 6 -10 3 -39
-10 -92 l-20 -78 -353 -39 c-194 -21 -354 -37 -356 -35 -3 2 3 34 11 71 l15
67 56 6 c103 11 95 2 125 127 15 62 27 122 27 133 0 14 -19 31 -60 54 -37 22
-60 42 -60 52 0 34 22 119 30 119 5 0 138 -83 297 -185z m-2714 -3286 c30 -16
77 -60 77 -74 0 -6 -25 -23 -56 -38 -51 -25 -57 -26 -77 -12 -31 22 -64 18
-92 -10 -30 -29 -32 -70 -9 -138 l16 -47 30 41 c50 69 145 97 221 65 48 -20
105 -91 124 -155 31 -108 -20 -212 -132 -267 -145 -70 -273 15 -362 242 -58
147 -54 240 14 315 68 75 182 111 246 78z m-4409 -65 c191 -87 261 -158 273
-279 15 -145 -85 -323 -215 -383 -47 -21 -64 -24 -126 -19 -70 5 -106 18 -293
103 l-62 29 53 120 c177 400 222 495 231 491 5 -2 68 -30 139 -62z m4021 -289
c38 -102 72 -185 76 -185 4 0 22 7 42 15 l35 14 16 -39 c23 -57 20 -67 -19
-80 -19 -6 -35 -16 -35 -20 0 -5 9 -32 20 -60 11 -28 20 -55 20 -60 0 -11 -60
-38 -101 -47 -24 -4 -28 0 -49 56 -12 34 -26 61 -30 61 -5 0 -59 -20 -122 -45
l-113 -44 -22 47 c-12 26 -22 57 -22 69 -1 12 13 82 30 155 17 73 40 168 49
212 10 43 22 82 27 87 9 8 102 46 118 48 6 0 41 -83 80 -184z m-3398 50 c114
-36 209 -67 211 -70 6 -6 -18 -94 -28 -100 -3 -2 -69 16 -145 41 -76 24 -142
41 -146 37 -3 -5 -15 -38 -27 -76 l-20 -67 132 -41 c72 -23 132 -43 134 -44 7
-6 -10 -74 -22 -90 -11 -16 -23 -13 -141 24 -71 23 -132 38 -136 34 -13 -15
-51 -144 -46 -156 3 -7 25 -19 48 -26 132 -38 239 -75 239 -83 0 -26 -24 -98
-32 -98 -16 0 -423 131 -429 138 -4 4 1 32 11 62 10 30 37 116 60 190 23 74
57 182 75 240 18 58 36 115 40 128 3 12 8 22 11 22 3 0 98 -29 211 -65z m2881
-61 c81 -34 129 -108 168 -262 52 -206 21 -315 -109 -372 -102 -45 -192 -36
-247 26 -47 54 -41 69 35 89 66 18 66 18 81 -3 22 -31 73 -29 109 4 26 24 27
29 23 89 -7 84 -14 93 -47 61 -35 -33 -76 -47 -138 -47 -59 0 -100 18 -136 60
-65 78 -74 188 -20 264 60 86 192 129 281 91z m-2281 -87 c73 -38 106 -84 111
-158 5 -67 8 -65 -81 -48 -53 11 -57 14 -57 40 0 101 -175 134 -209 39 -18
-52 1 -74 113 -131 166 -84 196 -116 196 -204 0 -63 -20 -105 -70 -147 -52
-46 -119 -63 -207 -54 -128 13 -230 71 -254 144 -11 34 -15 129 -6 138 4 4 43
-3 125 -21 18 -4 21 -10 16 -29 -3 -13 1 -39 9 -58 18 -43 67 -68 132 -68 38
0 52 5 76 29 35 35 37 70 7 98 -13 11 -66 43 -118 71 -99 53 -152 98 -169 145
-31 80 13 181 98 228 31 17 51 19 136 16 84 -3 108 -8 152 -30z m1896 -313
c32 -174 56 -318 54 -321 -8 -7 -127 -27 -132 -22 -3 3 -23 104 -45 225 -22
120 -43 230 -46 243 l-5 24 -32 -30 c-40 -37 -87 -73 -97 -73 -3 0 -12 28 -18
62 -10 52 -9 64 3 70 8 5 20 14 27 21 87 82 143 113 208 116 l25 1 58 -316z
m-1484 255 c227 -23 334 -142 318 -351 -10 -134 -63 -231 -155 -286 l-47 -27
-188 1 c-104 1 -193 6 -197 10 -5 5 3 146 16 314 13 168 24 318 24 333 l0 28
68 -6 c37 -4 109 -11 161 -16z m836 -33 c4 -18 5 -44 3 -57 -3 -24 -4 -24
-133 -26 -176 -4 -175 -3 -175 -57 0 -24 3 -58 6 -75 l7 -32 138 3 139 3 6
-31 c3 -17 4 -42 2 -55 -3 -24 -5 -24 -138 -30 -74 -4 -138 -7 -142 -8 -9 -1
-10 -91 -2 -142 l6 -37 150 6 c168 6 168 6 168 -64 l0 -41 -147 -7 c-82 -3
-186 -7 -233 -8 l-85 -3 -12 335 c-7 183 -11 335 -9 337 1 2 92 7 202 12 109
4 209 9 221 9 18 2 23 -5 28 -32z"/>
<path d="M7285 11188 c-14 -41 -44 -162 -41 -166 2 -2 39 -13 82 -23 93 -24
128 -15 150 37 32 75 6 113 -97 144 -75 23 -88 24 -94 8z"/>
<path d="M4210 10885 c0 -80 3 -145 8 -145 19 1 160 56 163 64 4 10 -152 225
-163 226 -5 0 -8 -65 -8 -145z"/>
<path d="M7969 10794 c-52 -58 -92 -109 -90 -112 5 -8 162 -74 166 -70 4 6 26
281 22 284 -2 3 -46 -43 -98 -102z"/>
<path d="M3512 10775 c-40 -19 -72 -39 -72 -45 0 -12 44 -102 67 -137 l15 -22
69 34 c38 19 76 46 85 60 34 52 -10 145 -69 145 -13 0 -55 -16 -95 -35z"/>
<path d="M8817 10368 c-46 -68 -103 -151 -126 -186 l-42 -63 23 -19 c36 -31
119 -70 147 -70 70 1 165 76 211 166 33 64 35 150 4 191 -20 27 -112 103 -126
103 -4 0 -44 -55 -91 -122z"/>
<path d="M2909 10419 c-35 -23 -66 -43 -68 -45 -2 -2 17 -35 43 -74 l47 -71
30 18 c17 10 51 35 75 56 52 46 57 80 18 126 -35 42 -67 40 -145 -10z"/>
<path d="M3140 10233 c-33 -13 -140 -85 -140 -94 0 -13 91 -149 100 -149 15 0
148 100 154 115 27 72 -47 155 -114 128z"/>
<path d="M4833 9503 c-13 -3 -23 -12 -23 -22 0 -21 -100 -119 -122 -118 -9 0
-40 -15 -69 -34 -44 -28 -63 -34 -109 -34 -74 -1 -139 -34 -133 -68 3 -13 -2
-29 -11 -36 -13 -11 -23 -7 -65 23 -29 22 -52 32 -56 26 -3 -5 -30 -10 -59
-10 -40 0 -57 5 -71 20 -10 11 -31 20 -47 20 -16 0 -38 5 -48 10 -40 21 -30
-11 19 -63 30 -31 51 -63 51 -76 0 -12 11 -57 25 -100 28 -85 36 -91 116 -91
28 0 36 -14 21 -36 -4 -6 -33 -25 -64 -43 -36 -20 -58 -39 -58 -50 0 -9 -10
-31 -23 -48 -17 -23 -27 -29 -39 -22 -11 6 -23 3 -40 -11 -14 -10 -43 -26 -66
-35 -23 -9 -44 -25 -47 -34 -8 -26 -72 -84 -84 -77 -6 4 -11 18 -11 32 0 30 1
30 -61 -2 l-51 -25 -66 42 c-37 23 -74 42 -84 41 -12 0 -26 23 -49 81 -17 45
-35 85 -39 90 -3 4 -26 -9 -49 -30 -43 -37 -44 -37 -73 -20 -38 22 -48 21 -48
-2 0 -27 -20 -32 -168 -38 l-133 -6 3 -56 3 -56 48 -9 c49 -9 74 -33 63 -63
-5 -11 -15 -14 -36 -10 -18 4 -45 -1 -75 -14 l-45 -20 0 -69 0 -69 45 -37 c35
-28 45 -43 45 -66 0 -17 9 -43 20 -58 l20 -28 -33 -274 c-27 -214 -39 -282
-56 -315 -23 -47 -32 -51 -52 -27 -20 24 -100 12 -130 -18 -16 -16 -51 -30
-105 -42 -72 -17 -92 -27 -170 -85 -80 -61 -89 -71 -96 -108 -3 -23 -16 -60
-28 -84 -18 -33 -21 -53 -17 -91 6 -47 6 -48 -41 -85 -61 -49 -62 -50 -62
-100 0 -32 -5 -45 -20 -53 -27 -15 -25 -38 6 -62 14 -11 23 -26 20 -33 -2 -7
26 -50 62 -95 103 -127 107 -135 88 -165 -9 -13 -16 -26 -16 -29 0 -2 36 -7
79 -11 l79 -7 31 -50 c29 -47 34 -50 63 -44 17 3 41 6 53 6 12 0 53 25 91 55
38 30 74 53 79 51 6 -1 10 -20 10 -42 0 -21 4 -85 9 -142 7 -92 11 -104 29
-111 13 -5 35 -2 57 7 47 20 234 29 255 12 22 -18 80 5 111 46 21 26 34 34 59
34 20 0 35 6 39 15 6 17 145 109 223 149 38 19 68 26 109 26 36 0 63 5 73 14
28 25 44 4 42 -55 -5 -157 2 -218 35 -289 27 -59 81 -110 116 -110 9 0 25 -16
37 -35 22 -37 28 -39 118 -35 34 1 60 -4 75 -14 12 -9 34 -16 47 -16 14 0 34
-9 45 -19 33 -30 98 -61 128 -61 19 0 37 -12 62 -41 l35 -42 65 7 c73 7 111
-4 172 -50 30 -24 35 -32 30 -57 -3 -16 0 -40 9 -57 10 -19 12 -36 6 -58 -5
-17 -7 -33 -3 -36 3 -3 -1 -17 -8 -31 -12 -23 -11 -28 16 -56 25 -26 30 -40
34 -102 l5 -72 173 -3 172 -2 0 -25 c0 -13 -4 -35 -10 -50 -7 -18 -6 -40 3
-72 11 -42 17 -49 58 -66 40 -17 51 -28 74 -78 l28 -58 -47 -190 c-52 -206
-54 -242 -14 -311 18 -31 20 -49 17 -160 l-4 -125 25 2 c14 0 47 -5 74 -13 65
-18 121 -18 150 1 22 15 27 14 57 -4 19 -12 44 -21 56 -21 17 0 25 -11 42 -63
11 -34 23 -84 26 -112 4 -27 13 -71 21 -97 18 -57 43 -66 108 -38 44 18 47 18
76 2 26 -15 30 -22 30 -64 0 -26 -9 -84 -20 -130 -11 -46 -20 -95 -20 -110 0
-26 3 -28 43 -28 54 -1 70 -14 90 -74 20 -58 21 -109 6 -172 -11 -42 -17 -48
-103 -101 -106 -65 -205 -145 -224 -179 -7 -13 -19 -24 -26 -24 -16 0 -123
-118 -145 -158 -8 -15 -45 -65 -83 -112 -37 -46 -68 -88 -68 -92 0 -16 55 -7
75 12 l22 20 45 -25 c53 -29 118 -104 118 -134 0 -30 19 -36 44 -12 12 12 27
21 32 21 6 0 32 -22 57 -49 27 -28 60 -52 76 -56 17 -4 41 -21 56 -41 14 -19
44 -43 66 -54 22 -12 50 -38 65 -62 14 -22 38 -52 52 -65 l25 -23 -19 -28
c-11 -15 -24 -35 -27 -46 -10 -27 3 -87 20 -93 23 -9 101 76 135 147 42 89 95
158 159 204 83 60 183 182 226 273 69 148 111 209 184 269 38 31 76 71 85 89
26 57 52 325 37 385 -8 29 -5 43 14 79 26 50 30 96 8 105 -34 13 -15 29 48 40
16 3 37 15 47 28 10 13 70 63 133 111 135 102 253 162 303 154 22 -4 37 -1 44
9 18 20 120 74 143 74 15 0 17 5 12 28 -5 23 -2 30 18 39 16 8 29 8 42 1 12
-7 28 -7 50 -1 23 7 41 7 61 -2 33 -14 64 -9 64 11 0 25 23 27 42 4 18 -22 23
-22 105 -16 48 4 90 9 94 12 4 2 10 18 14 35 6 26 18 35 91 69 l84 39 0 44 c0
61 39 143 93 196 25 24 48 55 52 69 4 15 29 55 58 91 53 68 64 104 91 293 6
41 14 54 57 90 49 43 49 43 49 104 0 46 10 91 39 174 l39 111 -11 111 c-8 85
-8 124 2 172 7 33 15 98 17 144 4 68 9 90 29 120 14 20 25 46 25 57 1 11 7 31
14 44 l14 25 16 -33 c10 -18 23 -31 31 -29 25 6 137 151 166 215 38 86 73 127
148 178 66 45 311 280 311 299 0 6 20 56 45 110 32 71 45 113 45 145 0 25 5
64 10 86 8 33 2 72 -31 225 -36 167 -43 188 -70 213 -26 24 -37 27 -98 27
-122 0 -246 60 -346 168 -92 100 -294 252 -386 292 -82 35 -84 35 -173 27 -88
-8 -210 5 -221 23 -2 4 -15 5 -28 3 -14 -3 -43 5 -66 16 -23 12 -77 35 -121
51 -65 24 -80 27 -90 15 -6 -7 -28 -16 -50 -20 -21 -4 -46 -15 -56 -26 -9 -10
-25 -19 -34 -19 -9 0 -31 -16 -50 -35 -34 -35 -58 -38 -40 -5 7 13 7 21 -1 26
-15 9 -4 72 17 95 18 20 11 39 -14 39 -12 0 -13 3 -4 12 20 20 14 53 -16 81
-31 30 -86 45 -96 28 -12 -19 -24 -12 -35 19 -5 17 -14 29 -18 28 -16 -4 -119
35 -139 53 -11 11 -34 19 -52 19 -17 0 -34 5 -38 11 -13 21 -116 60 -143 55
-14 -4 -32 -2 -40 3 -38 24 -159 -78 -173 -144 -2 -13 -10 -19 -22 -17 -9 2
-42 -15 -72 -38 -43 -33 -62 -57 -94 -120 -39 -77 -60 -100 -60 -62 0 9 12 35
25 57 24 38 32 75 19 88 -3 3 -19 1 -36 -5 -24 -9 -36 -8 -57 5 -18 11 -32 13
-41 6 -8 -5 -34 -8 -57 -7 -23 1 -48 -4 -57 -11 -19 -16 -50 -10 -54 10 -2 11
6 19 22 23 30 7 32 24 14 103 -7 29 -18 53 -24 53 -6 0 -40 -19 -76 -42 -35
-24 -88 -54 -117 -68 l-53 -24 6 -56 7 -55 -21 24 c-12 14 -20 37 -20 61 0 36
-2 39 -37 47 l-38 9 65 23 c71 25 131 78 155 134 7 17 27 45 44 61 17 17 31
40 31 52 0 16 14 30 54 53 30 16 64 45 77 63 13 18 47 59 76 90 29 32 53 67
53 77 0 41 -24 72 -71 92 -26 12 -54 28 -62 37 -24 30 -53 114 -87 257 -28
117 -38 145 -64 173 -16 17 -33 32 -37 32 -4 0 -13 -15 -20 -32 -7 -18 -28
-53 -45 -78 -18 -25 -58 -93 -89 -152 -31 -59 -70 -119 -86 -133 -31 -25 -77
-33 -94 -16 -15 15 -105 14 -153 0 -37 -12 -46 -11 -71 4 -16 9 -38 17 -49 17
-11 0 -33 11 -49 24 -28 24 -30 24 -93 11 -36 -8 -77 -14 -91 -15 -14 0 -34
-9 -44 -20 -16 -18 -16 -20 4 -46 12 -15 21 -30 21 -34 0 -15 -50 -20 -101 -9
-36 8 -58 8 -74 1 -16 -8 -35 -8 -60 -1 -32 9 -40 7 -70 -15 -19 -14 -46 -26
-62 -26 -15 0 -37 -7 -47 -15 -11 -8 -30 -15 -43 -15 -12 0 -37 -13 -55 -29
-64 -55 -78 -52 -195 47 -47 39 -53 48 -53 82 0 30 -5 42 -21 51 -20 10 -21
16 -14 78 4 36 7 82 6 101 0 26 7 44 30 70 20 23 28 41 25 55 -13 52 -37 92
-61 103 -23 11 -26 17 -24 55 1 23 -3 52 -10 65 -11 21 -22 24 -68 15z m1432
-2056 c42 -25 340 -339 352 -370 16 -43 15 -97 -1 -127 -8 -14 -69 -79 -136
-146 l-123 -121 98 -79 c54 -43 152 -123 218 -177 105 -85 122 -96 136 -84 9
8 123 98 254 201 130 103 237 190 237 193 0 4 -40 48 -90 99 -86 87 -90 93
-90 135 0 39 18 82 41 99 3 3 51 46 105 96 248 228 256 234 312 234 53 0 100
-44 263 -250 90 -113 171 -221 181 -240 25 -47 23 -96 -12 -374 -17 -131 -30
-242 -30 -248 0 -23 -50 -58 -84 -58 -39 0 -47 6 -280 219 -120 110 -150 132
-165 125 -22 -11 -431 -404 -431 -415 0 -4 71 -63 159 -130 594 -463 584 -454
562 -511 -12 -30 -214 -228 -232 -228 -29 1 -65 33 -380 337 -178 172 -327
314 -330 315 -7 3 -85 -71 -389 -366 -232 -225 -256 -246 -284 -246 -18 0 -51
28 -128 106 -57 58 -106 114 -110 124 -4 11 -3 32 3 47 10 28 27 43 224 194
61 47 119 93 130 102 11 9 77 60 146 114 69 54 139 108 154 121 l29 23 -114
112 c-63 62 -150 146 -192 187 l-78 73 -109 -108 c-60 -59 -122 -116 -138
-126 -37 -25 -109 -25 -148 -1 -16 11 -101 93 -188 185 -172 180 -187 204
-167 276 8 32 58 85 298 318 409 398 391 383 455 383 28 -1 61 -6 72 -13z"/>
<path d="M6810 8916 c0 -9 5 -16 10 -16 6 0 10 4 10 9 0 6 -4 13 -10 16 -5 3
-10 -1 -10 -9z"/>
<path d="M6850 8620 c0 -5 5 -10 10 -10 6 0 10 5 10 10 0 6 -4 10 -10 10 -5 0
-10 -4 -10 -10z"/>
<path d="M6872 8552 c-27 -8 -31 -25 -7 -30 28 -6 65 8 65 23 0 16 -19 18 -58
7z"/>
<path d="M6955 8519 c-10 -15 1 -22 24 -14 12 3 19 11 16 16 -8 12 -32 11 -40
-2z"/>
<path d="M6710 8495 c-7 -9 -11 -18 -8 -20 8 -9 36 5 42 21 7 19 -18 18 -34
-1z"/>
<path d="M6798 8476 c-10 -7 -18 -22 -18 -33 0 -11 -7 -26 -15 -33 -17 -14
-21 -100 -5 -100 7 0 6 -8 -2 -22 -7 -13 -11 -27 -9 -33 2 -5 7 -23 10 -40 l7
-30 89 -2 c70 -2 93 1 107 14 10 9 28 17 40 19 88 12 113 20 116 39 2 11 13
29 23 41 19 20 73 143 66 150 -2 2 -34 10 -71 18 -49 10 -78 11 -103 4 -26 -7
-54 -5 -105 6 -85 19 -108 20 -130 2z"/>
<path d="M6608 8393 c-9 -2 -21 -17 -26 -32 -6 -15 -22 -40 -36 -54 -22 -23
-35 -57 -21 -57 23 0 77 40 93 69 40 74 39 87 -10 74z"/>
<path d="M6697 8383 c-4 -3 -7 -11 -7 -17 0 -6 5 -5 12 2 6 6 9 14 7 17 -3 3
-9 2 -12 -2z"/>
<path d="M1762 9314 c-36 -18 -122 -109 -121 -128 0 -6 70 -65 155 -131 213
-165 191 -151 215 -129 35 32 79 117 79 153 0 51 -35 115 -90 164 -86 78 -174
104 -238 71z"/>
<path d="M1326 8619 c11 -13 53 -62 94 -109 41 -47 77 -88 80 -92 3 -5 27 29
53 73 26 45 46 83 44 85 -1 2 -59 15 -127 29 -69 14 -134 29 -145 32 -20 5
-20 5 1 -18z"/>
<path d="M1045 8071 c-34 -15 -72 -63 -99 -124 l-25 -58 22 -9 c12 -4 105 -43
206 -84 101 -42 188 -76 192 -76 14 0 49 111 49 157 0 74 -38 121 -140 173
-49 25 -169 37 -205 21z"/>
<path d="M10784 8065 c-33 -7 -87 -27 -120 -43 -131 -66 -168 -159 -107 -264
41 -72 149 -87 276 -38 159 60 223 178 153 282 -42 63 -107 83 -202 63z"/>
<path d="M11055 6799 c-80 -13 -131 -37 -171 -81 -35 -40 -36 -43 -32 -103 7
-76 26 -108 84 -136 54 -26 181 -28 257 -5 118 36 173 112 148 205 -28 106
-126 147 -286 120z"/>
<path d="M723 5810 c-107 -23 -165 -82 -165 -169 0 -122 93 -181 264 -168 156
12 228 68 228 177 0 71 -24 110 -86 140 -53 26 -168 36 -241 20z"/>
<path d="M10936 4845 c-10 -47 -16 -88 -13 -91 7 -7 277 17 277 25 0 6 -206
136 -231 146 -11 4 -19 -16 -33 -80z"/>
<path d="M8315 1408 c-32 -19 -44 -41 -45 -82 0 -42 30 -100 60 -116 10 -6 31
-10 47 -10 92 0 109 117 27 190 -37 32 -57 36 -89 18z"/>
<path d="M3838 1493 c-76 -164 -138 -307 -138 -319 0 -14 88 -53 136 -61 102
-17 224 131 224 271 0 80 -25 115 -113 162 l-68 35 -41 -88z"/>
<path d="M7786 1230 c-16 -72 -27 -132 -25 -134 3 -3 127 42 138 50 5 4 -73
214 -79 214 -3 0 -18 -59 -34 -130z"/>
<path d="M7311 1269 c-36 -14 -50 -39 -51 -85 0 -74 56 -124 116 -104 70 23
80 130 17 179 -28 23 -45 25 -82 10z"/>
<path d="M5486 1122 c-8 -14 -38 -431 -31 -442 3 -5 39 -10 79 -10 59 0 79 4
107 23 45 30 75 77 88 138 31 143 -13 252 -112 277 -65 17 -125 23 -131 14z"/>
</g>
</svg>
